<svg width="2059" height="220" viewBox="0 0 2059 220" fill="none" xmlns="http://www.w3.org/2000/svg">
<path d="M9.80833 167V39.4917H35.6667V90.3167L84.7083 39.4917H116.808L66.875 90.495L120.018 167H89.7017L48.685 107.437L35.6667 120.633V167H9.80833ZM219.931 151.307C208.755 163.671 193.894 169.853 175.348 169.853C156.801 169.853 141.88 163.671 130.586 151.307C119.41 138.823 113.823 122.892 113.823 103.513C113.823 84.1344 119.41 68.2033 130.586 55.72C141.88 43.2367 156.801 36.995 175.348 36.995C193.894 36.995 208.755 43.2367 219.931 55.72C231.107 68.2033 236.694 84.1344 236.694 103.513C236.694 122.892 231.107 138.823 219.931 151.307ZM149.311 135.97C155.493 144.411 164.232 148.632 175.526 148.632C186.82 148.632 195.44 144.471 201.384 136.148C207.329 127.707 210.301 116.829 210.301 103.513C210.301 90.1978 207.329 79.3194 201.384 70.8783C195.44 62.4372 186.82 58.2167 175.526 58.2167C164.232 58.2167 155.493 62.4372 149.311 70.8783C143.248 79.3194 140.216 90.1978 140.216 103.513C140.216 116.71 143.248 127.529 149.311 135.97ZM278.094 167L235.116 39.4917H262.222L284.692 113.322L290.221 133.652H290.577C292.599 125.567 294.441 118.791 296.106 113.322L318.397 39.4917H344.612L301.634 167H278.094ZM332.124 167L376.529 39.4917H403.279L448.219 167H421.29L412.73 139.893H366.72L358.339 167H332.124ZM384.197 83.3617L372.784 120.098H406.489L395.075 83.3617L389.904 63.745H389.547C387.407 72.305 385.624 78.8439 384.197 83.3617ZM458.951 167V39.4917H484.809V145.422H544.729V167H458.951ZM608.986 169.675C591.034 169.675 576.292 163.493 564.759 151.128C553.346 138.645 547.639 122.833 547.639 103.692C547.639 84.4317 553.227 68.5006 564.403 55.8983C575.578 43.2961 590.38 36.995 608.808 36.995C624.025 36.995 636.212 41.0372 645.366 49.1217C654.639 57.0872 659.989 67.3711 661.416 79.9733H635.736C634.547 73.4344 631.575 68.2628 626.819 64.4583C622.183 60.6539 616.179 58.7517 608.808 58.7517C597.513 58.7517 588.894 62.9128 582.949 71.235C577.005 79.5572 574.033 90.3761 574.033 103.692C574.033 116.888 577.183 127.648 583.484 135.97C589.904 144.292 598.405 148.453 608.986 148.453C616.476 148.453 622.718 146.432 627.711 142.39C632.704 138.229 635.617 132.76 636.449 125.983H661.773C661.059 137.991 656.363 148.037 647.684 156.122C638.054 165.157 625.155 169.675 608.986 169.675ZM675.075 167V39.4917H700.934V89.425H751.045V39.4917H776.904V167H751.045V110.825H700.934V167H675.075ZM845.68 169.14C829.274 169.14 816.79 165.454 808.23 158.083C799.67 150.593 795.39 139.893 795.39 125.983V39.4917H821.249V125.983C821.249 140.963 829.214 148.453 845.145 148.453C853.111 148.453 859.115 146.373 863.157 142.212C867.199 138.051 869.22 132.522 869.22 125.627V39.4917H895.079V125.983C895.079 139.774 890.858 150.415 882.417 157.905C874.095 165.395 861.849 169.14 845.68 169.14ZM913.666 167V39.4917H939.524V90.3167L988.566 39.4917H1020.67L970.732 90.495L1023.88 167H993.559L952.542 107.437L939.524 120.633V167H913.666Z" fill="black"/>
<path d="M1056.3 168V36.7414H1149.01V51.2441H1072.82V92.7328H1142.03V106.685H1072.82V152.763H1151.21V168H1056.3ZM1170.5 168V36.7414H1218.23C1237.44 36.7414 1251.95 42.6771 1261.74 54.5485C1271.53 66.4199 1276.42 82.5136 1276.42 102.83C1276.42 123.023 1271.34 138.933 1261.19 150.56C1251.03 162.187 1236.28 168 1216.94 168H1170.5ZM1187.02 153.497H1216.39C1245.15 153.497 1259.53 136.608 1259.53 102.83C1259.53 68.3169 1245.58 51.0605 1217.68 51.0605H1187.02V153.497ZM1344.09 170.019C1328.79 170.019 1316.55 166.409 1307.37 159.188C1298.32 151.967 1293.79 140.769 1293.79 125.593V36.7414H1310.31V123.941C1310.31 145.236 1321.75 155.884 1344.64 155.884C1366.79 155.884 1377.87 145.236 1377.87 123.941V36.7414H1394.39V125.593C1394.39 140.647 1389.74 151.845 1380.44 159.188C1371.26 166.409 1359.14 170.019 1344.09 170.019ZM1473.37 170.57C1454.89 170.57 1440.02 164.206 1428.76 151.478C1417.5 138.75 1411.87 122.35 1411.87 102.279C1411.87 82.4524 1417.44 66.114 1428.57 53.2635C1439.83 40.2906 1455.01 33.8042 1474.1 33.8042C1489.03 33.8042 1501.09 37.6593 1510.26 45.3696C1519.44 53.0799 1524.95 63.1767 1526.79 75.66H1510.63C1509.04 67.3378 1505 60.6678 1498.52 55.65C1492.15 50.6322 1483.89 48.1233 1473.73 48.1233C1459.66 48.1233 1448.64 53.2023 1440.69 63.3603C1432.73 73.3959 1428.76 86.3688 1428.76 102.279C1428.76 118.434 1432.86 131.468 1441.06 141.381C1449.38 151.172 1460.33 156.067 1473.92 156.067C1485.67 156.067 1494.72 152.641 1501.09 145.787C1507.57 138.933 1511.24 130.305 1512.1 119.902H1528.44C1528.32 126.389 1526.79 133.059 1523.85 139.912C1521.03 146.644 1517.3 152.273 1512.65 156.802C1503.23 165.981 1490.13 170.57 1473.37 170.57ZM1533.82 168L1582.11 36.7414H1600.65L1649.11 168H1631.12L1617.17 127.98H1564.85L1550.71 168H1533.82ZM1585.23 70.5199L1569.62 114.579H1612.58L1597.53 70.5199L1591.65 51.9784H1591.28C1588.96 59.3216 1586.94 65.502 1585.23 70.5199ZM1638.57 51.2441V36.7414H1742.48V51.2441H1698.79V168H1682.26V51.2441H1638.57ZM1759.25 168V36.7414H1775.77V168H1759.25ZM1906.58 151.478C1894.95 164.328 1879.41 170.754 1859.95 170.754C1840.49 170.754 1824.89 164.328 1813.14 151.478C1801.51 138.627 1795.7 122.228 1795.7 102.279C1795.7 82.3301 1801.51 65.9304 1813.14 53.0799C1824.89 40.2294 1840.49 33.8042 1859.95 33.8042C1879.41 33.8042 1894.95 40.2294 1906.58 53.0799C1918.33 65.9304 1924.2 82.3301 1924.2 102.279C1924.2 122.228 1918.33 138.627 1906.58 151.478ZM1825.07 141.198C1833.39 151.233 1845.02 156.251 1859.95 156.251C1874.88 156.251 1886.51 151.233 1894.83 141.198C1903.15 131.162 1907.31 118.189 1907.31 102.279C1907.31 86.3688 1903.15 73.3959 1894.83 63.3603C1886.51 53.2023 1874.88 48.1233 1859.95 48.1233C1845.02 48.1233 1833.39 53.2023 1825.07 63.3603C1816.75 73.3959 1812.59 86.3688 1812.59 102.279C1812.59 118.189 1816.75 131.162 1825.07 141.198ZM1943.89 168V36.7414H1961.33L2021.18 127.98L2030.73 144.869H2031.09V36.7414H2046.51V168H2029.63L1969.41 76.5779L1959.68 60.2395H1959.31V168H1943.89Z" fill="black"/>
</svg>
